<svg xmlns="http://www.w3.org/2000/svg" version="1.1" width="256px" height="256px"
    xmlns:xlink="http://www.w3.org/1999/xlink">
    <g>
        <path style="opacity:0.004" fill="#fefffe"
            d="M -0.5,-0.5 C 84.8333,-0.5 170.167,-0.5 255.5,-0.5C 255.5,84.8333 255.5,170.167 255.5,255.5C 244.5,255.5 233.5,255.5 222.5,255.5C 228.064,253.105 232.231,249.105 235,243.5C 240,241.167 243.667,237.5 246,232.5C 246.667,224.833 246.667,217.167 246,209.5C 244.065,206.629 242.399,203.629 241,200.5C 240.667,191.5 240.333,182.5 240,173.5C 237.359,168.856 233.525,165.689 228.5,164C 214.833,163.667 201.167,163.333 187.5,163C 186.376,162.751 185.376,162.251 184.5,161.5C 198.276,136.432 195.609,113.266 176.5,92C 181.161,72.966 176.161,56.966 161.5,44C 157.294,41.3977 152.961,39.0643 148.5,37C 139.907,17.3639 124.907,6.53058 103.5,4.5C 100.298,4.85981 97.2979,5.52648 94.5,6.5C 79.305,9.09106 68.6384,17.4244 62.5,31.5C 60.7368,34.0196 58.7368,36.3529 56.5,38.5C 42.4904,43.8446 33.8237,53.8446 30.5,68.5C 29.0156,72.0543 28.3489,75.8877 28.5,80C 28.7674,84.5118 29.1007,89.0118 29.5,93.5C 26.1021,96.6267 23.4354,100.293 21.5,104.5C 20.0937,104.973 19.427,105.973 19.5,107.5C 19.5,107.833 19.5,108.167 19.5,108.5C 18.0883,110.604 17.0883,112.937 16.5,115.5C 9.50093,145.008 19.5009,166.841 46.5,181C 53.8913,183.278 61.3913,184.778 69,185.5C 70.2958,204.435 70.9625,223.435 71,242.5C 72.5893,248.917 76.4227,253.251 82.5,255.5C 54.8333,255.5 27.1667,255.5 -0.5,255.5C -0.5,170.167 -0.5,84.8333 -0.5,-0.5 Z" />
    </g>
    <g>
        <path style="opacity:0.059" fill="#020202"
            d="M 222.5,255.5 C 216.167,255.5 209.833,255.5 203.5,255.5C 197.841,254.014 193.841,250.514 191.5,245C 181.167,243 170.833,243 160.5,245C 158.184,250.486 154.184,253.986 148.5,255.5C 142.167,255.5 135.833,255.5 129.5,255.5C 126.167,252.833 122.833,252.833 119.5,255.5C 107.167,255.5 94.8333,255.5 82.5,255.5C 76.4227,253.251 72.5893,248.917 71,242.5C 70.9625,223.435 70.2958,204.435 69,185.5C 61.3913,184.778 53.8913,183.278 46.5,181C 19.5009,166.841 9.50093,145.008 16.5,115.5C 12.3012,142.424 22.3012,161.924 46.5,174C 55.0185,176.196 63.6852,177.029 72.5,176.5C 72.3334,197.836 72.5,219.169 73,240.5C 74.25,243.171 76.0833,245.337 78.5,247C 91.1667,247.667 103.833,247.667 116.5,247C 118.305,246.028 119.972,244.861 121.5,243.5C 123.028,244.861 124.695,246.028 126.5,247C 133.167,247.667 139.833,247.667 146.5,247C 151.021,244.451 153.355,240.617 153.5,235.5C 166.5,235.5 179.5,235.5 192.5,235.5C 192.144,240.952 194.477,244.785 199.5,247C 206.5,247.667 213.5,247.667 220.5,247C 224.726,244.383 226.726,240.55 226.5,235.5C 232.031,235.823 235.864,233.49 238,228.5C 238.667,221.5 238.667,214.5 238,207.5C 237.027,205.36 235.527,203.693 233.5,202.5C 232.668,191.849 232.168,181.182 232,170.5C 230.457,168.622 228.624,167.122 226.5,166C 207.167,165.667 187.833,165.333 168.5,165C 187.413,146.613 190.58,125.779 178,102.5C 175.37,98.8683 172.37,95.535 169,92.5C 173.999,73.3176 169.166,57.1509 154.5,44C 149.786,41.1518 144.786,38.9851 139.5,37.5C 135.557,22.7195 126.224,12.8862 111.5,8C 105.899,6.78324 100.232,6.28324 94.5,6.5C 97.2979,5.52648 100.298,4.85981 103.5,4.5C 124.907,6.53058 139.907,17.3639 148.5,37C 152.961,39.0643 157.294,41.3977 161.5,44C 176.161,56.966 181.161,72.966 176.5,92C 195.609,113.266 198.276,136.432 184.5,161.5C 185.376,162.251 186.376,162.751 187.5,163C 201.167,163.333 214.833,163.667 228.5,164C 233.525,165.689 237.359,168.856 240,173.5C 240.333,182.5 240.667,191.5 241,200.5C 242.399,203.629 244.065,206.629 246,209.5C 246.667,217.167 246.667,224.833 246,232.5C 243.667,237.5 240,241.167 235,243.5C 232.231,249.105 228.064,253.105 222.5,255.5 Z" />
    </g>
    <g>
        <path style="opacity:0.991" fill="#f9faf9"
            d="M 94.5,6.5 C 100.232,6.28324 105.899,6.78324 111.5,8C 126.224,12.8862 135.557,22.7195 139.5,37.5C 144.786,38.9851 149.786,41.1518 154.5,44C 169.166,57.1509 173.999,73.3176 169,92.5C 172.37,95.535 175.37,98.8683 178,102.5C 190.58,125.779 187.413,146.613 168.5,165C 187.833,165.333 207.167,165.667 226.5,166C 228.624,167.122 230.457,168.622 232,170.5C 232.168,181.182 232.668,191.849 233.5,202.5C 235.527,203.693 237.027,205.36 238,207.5C 238.667,214.5 238.667,221.5 238,228.5C 235.864,233.49 232.031,235.823 226.5,235.5C 226.726,240.55 224.726,244.383 220.5,247C 213.5,247.667 206.5,247.667 199.5,247C 194.477,244.785 192.144,240.952 192.5,235.5C 179.5,235.5 166.5,235.5 153.5,235.5C 153.355,240.617 151.021,244.451 146.5,247C 139.833,247.667 133.167,247.667 126.5,247C 124.695,246.028 123.028,244.861 121.5,243.5C 119.972,244.861 118.305,246.028 116.5,247C 103.833,247.667 91.1667,247.667 78.5,247C 76.0833,245.337 74.25,243.171 73,240.5C 72.5,219.169 72.3334,197.836 72.5,176.5C 63.6852,177.029 55.0185,176.196 46.5,174C 22.3012,161.924 12.3012,142.424 16.5,115.5C 18.8176,113.815 19.8176,111.481 19.5,108.5C 19.5,108.167 19.5,107.833 19.5,107.5C 20.9063,107.027 21.573,106.027 21.5,104.5C 23.4354,100.293 26.1021,96.6267 29.5,93.5C 32.9198,91.6048 33.4198,88.9381 31,85.5C 30.5006,79.8431 30.3339,74.1764 30.5,68.5C 33.8237,53.8446 42.4904,43.8446 56.5,38.5C 60.5902,37.9979 62.5902,35.6645 62.5,31.5C 68.6384,17.4244 79.305,9.09106 94.5,6.5 Z" />
    </g>
    <g>
        <path style="opacity:1" fill="#6baf44"
            d="M 111.5,165.5 C 101.5,165.5 91.5,165.5 81.5,165.5C 63.2582,169.36 47.7582,164.693 35,151.5C 21.4532,128.553 25.6199,109.553 47.5,94.5C 37.4418,76.233 41.1085,61.3997 58.5,50C 62.5864,47.9468 66.9197,47.1134 71.5,47.5C 71.3161,36.37 75.9827,27.87 85.5,22C 104.062,14.3825 118.229,19.2158 128,36.5C 129.31,40.0704 130.143,43.737 130.5,47.5C 150.781,50.2888 160.281,61.9555 159,82.5C 157.643,86.7457 155.81,90.7457 153.5,94.5C 175.382,109.566 179.548,128.566 166,151.5C 159.844,158.164 152.344,162.664 143.5,165C 132.839,165.5 122.172,165.667 111.5,165.5 Z" />
    </g>
    <g>
        <path style="opacity:0.013" fill="#030303"
            d="M 62.5,31.5 C 62.5902,35.6645 60.5902,37.9979 56.5,38.5C 58.7368,36.3529 60.7368,34.0196 62.5,31.5 Z" />
    </g>
    <g>
        <path style="opacity:0.016" fill="#060606"
            d="M 30.5,68.5 C 30.3339,74.1764 30.5006,79.8431 31,85.5C 33.4198,88.9381 32.9198,91.6048 29.5,93.5C 29.1007,89.0118 28.7674,84.5118 28.5,80C 28.3489,75.8877 29.0156,72.0543 30.5,68.5 Z" />
    </g>
    <g>
        <path style="opacity:0.043" fill="#515151"
            d="M 21.5,104.5 C 21.573,106.027 20.9063,107.027 19.5,107.5C 19.427,105.973 20.0937,104.973 21.5,104.5 Z" />
    </g>
    <g>
        <path style="opacity:0.075" fill="#8e8e8e"
            d="M 19.5,108.5 C 19.8176,111.481 18.8176,113.815 16.5,115.5C 17.0883,112.937 18.0883,110.604 19.5,108.5 Z" />
    </g>
    <g>
        <path style="opacity:1" fill="#9e5b2d"
            d="M 81.5,165.5 C 91.5,165.5 101.5,165.5 111.5,165.5C 111.5,170.5 111.5,175.5 111.5,180.5C 101.5,180.5 91.5,180.5 81.5,180.5C 81.5,175.5 81.5,170.5 81.5,165.5 Z" />
    </g>
    <g>
        <path style="opacity:1" fill="#a3ccf0"
            d="M 221.5,177.5 C 189.5,177.5 157.5,177.5 125.5,177.5C 125.5,180.833 125.5,184.167 125.5,187.5C 127.167,187.5 128.833,187.5 130.5,187.5C 130.5,190.5 130.5,193.5 130.5,196.5C 128.833,196.5 127.167,196.5 125.5,196.5C 125.5,199.833 125.5,203.167 125.5,206.5C 127.167,206.5 128.833,206.5 130.5,206.5C 130.806,209.385 130.473,212.052 129.5,214.5C 129.5,212.167 129.5,209.833 129.5,207.5C 127.833,207.5 126.167,207.5 124.5,207.5C 124.5,203.5 124.5,199.5 124.5,195.5C 126.167,195.5 127.833,195.5 129.5,195.5C 129.5,193.167 129.5,190.833 129.5,188.5C 127.833,188.5 126.167,188.5 124.5,188.5C 124.5,184.5 124.5,180.5 124.5,176.5C 157.004,176.168 189.338,176.502 221.5,177.5 Z" />
    </g>
    <g>
        <path style="opacity:1" fill="#519ee5"
            d="M 221.5,177.5 C 221.5,181.167 221.5,184.833 221.5,188.5C 218.833,188.5 216.167,188.5 213.5,188.5C 213.5,190.833 213.5,193.167 213.5,195.5C 216.167,195.5 218.833,195.5 221.5,195.5C 221.5,199.167 221.5,202.833 221.5,206.5C 218.833,206.5 216.167,206.5 213.5,206.5C 213.5,209.167 213.5,211.833 213.5,214.5C 218.167,214.5 222.833,214.5 227.5,214.5C 227.5,218.167 227.5,221.833 227.5,225.5C 222.833,225.5 218.167,225.5 213.5,225.5C 209.833,225.5 206.167,225.5 202.5,225.5C 182.167,225.5 161.833,225.5 141.5,225.5C 141.815,229.371 141.482,233.038 140.5,236.5C 140.5,232.833 140.5,229.167 140.5,225.5C 137.167,225.5 133.833,225.5 130.5,225.5C 130.5,229.167 130.5,232.833 130.5,236.5C 129.518,233.038 129.185,229.371 129.5,225.5C 126.167,225.5 122.833,225.5 119.5,225.5C 119.5,221.833 119.5,218.167 119.5,214.5C 122.833,214.5 126.167,214.5 129.5,214.5C 130.473,212.052 130.806,209.385 130.5,206.5C 128.833,206.5 127.167,206.5 125.5,206.5C 125.5,203.167 125.5,199.833 125.5,196.5C 127.167,196.5 128.833,196.5 130.5,196.5C 130.5,193.5 130.5,190.5 130.5,187.5C 128.833,187.5 127.167,187.5 125.5,187.5C 125.5,184.167 125.5,180.833 125.5,177.5C 157.5,177.5 189.5,177.5 221.5,177.5 Z" />
    </g>
    <g>
        <path style="opacity:1" fill="#c58c35"
            d="M 81.5,180.5 C 91.5,180.5 101.5,180.5 111.5,180.5C 111.5,199.167 111.5,217.833 111.5,236.5C 101.5,236.5 91.5,236.5 81.5,236.5C 81.5,217.833 81.5,199.167 81.5,180.5 Z" />
    </g>
    <g>
        <path style="opacity:1" fill="#fefffe"
            d="M 141.5,188.5 C 161.833,188.5 182.167,188.5 202.5,188.5C 202.5,190.833 202.5,193.167 202.5,195.5C 182.167,195.5 161.833,195.5 141.5,195.5C 141.5,193.167 141.5,190.833 141.5,188.5 Z" />
    </g>
    <g>
        <path style="opacity:1" fill="#b9d7f4"
            d="M 202.5,207.5 C 182.167,207.5 161.833,207.5 141.5,207.5C 141.5,209.833 141.5,212.167 141.5,214.5C 140.527,212.052 140.194,209.385 140.5,206.5C 161.34,206.169 182.007,206.503 202.5,207.5 Z" />
    </g>
    <g>
        <path style="opacity:1" fill="#fefffe"
            d="M 202.5,207.5 C 202.5,209.833 202.5,212.167 202.5,214.5C 182.167,214.5 161.833,214.5 141.5,214.5C 141.5,212.167 141.5,209.833 141.5,207.5C 161.833,207.5 182.167,207.5 202.5,207.5 Z" />
    </g>
    <g>
        <path style="opacity:1" fill="#006dfc"
            d="M 140.5,236.5 C 137.167,236.5 133.833,236.5 130.5,236.5C 130.5,232.833 130.5,229.167 130.5,225.5C 133.833,225.5 137.167,225.5 140.5,225.5C 140.5,229.167 140.5,232.833 140.5,236.5 Z" />
    </g>
    <g>
        <path style="opacity:1" fill="#036efc"
            d="M 202.5,225.5 C 206.167,225.5 209.833,225.5 213.5,225.5C 213.5,229.167 213.5,232.833 213.5,236.5C 209.833,236.5 206.167,236.5 202.5,236.5C 202.5,232.833 202.5,229.167 202.5,225.5 Z" />
    </g>
    <g>
        <path style="opacity:0.004" fill="#fefffe"
            d="M 203.5,255.5 C 185.167,255.5 166.833,255.5 148.5,255.5C 154.184,253.986 158.184,250.486 160.5,245C 170.833,243 181.167,243 191.5,245C 193.841,250.514 197.841,254.014 203.5,255.5 Z" />
    </g>
    <g>
        <path style="opacity:0.004" fill="#fefffe"
            d="M 129.5,255.5 C 126.167,255.5 122.833,255.5 119.5,255.5C 122.833,252.833 126.167,252.833 129.5,255.5 Z" />
    </g>
</svg>